<?xml version="1.0" standalone="no"?>
<!DOCTYPE svg PUBLIC "-//W3C//DTD SVG 20010904//EN"
 "http://www.w3.org/TR/2001/REC-SVG-20010904/DTD/svg10.dtd">
<svg version="1.0" xmlns="http://www.w3.org/2000/svg"
 width="200.000000pt" height="200.000000pt" viewBox="0 0 200.000000 200.000000"
 preserveAspectRatio="xMidYMid meet">
<metadata>
Created by potrace 1.14, written by Peter Selinger 2001-2017
</metadata>
<g transform="translate(0.000000,200.000000) scale(0.100000,-0.100000)"
fill="#000000" stroke="none">
<path d="M1001 1290 c-32 -102 -101 -312 -151 -467 -50 -155 -89 -286 -87
-291 3 -4 40 -7 83 -7 l78 0 74 230 c40 127 105 327 144 445 38 118 71 222 73
230 2 8 6 22 9 30 5 13 -7 15 -78 15 l-85 0 -60 -185z"/>
<path d="M630 1242 c-19 -9 -99 -47 -177 -84 l-143 -67 0 -90 0 -89 38 -15
c20 -8 99 -45 175 -81 75 -36 141 -66 146 -66 9 0 13 132 5 161 -2 8 -39 30
-82 49 -42 18 -81 37 -86 41 -4 4 11 16 35 26 24 11 63 28 86 38 24 10 45 25
47 34 7 23 5 161 -3 160 -3 0 -22 -8 -41 -17z"/>
<path d="M1322 1174 l1 -86 66 -30 c36 -16 77 -35 91 -40 23 -10 19 -13 -65
-53 l-90 -43 -2 -86 c-1 -51 2 -86 8 -86 8 0 263 118 329 153 23 12 25 18 28
100 l3 87 -93 44 c-51 24 -132 62 -180 85 -48 22 -89 41 -91 41 -3 0 -5 -39
-5 -86z"/>
</g>
</svg>
